<svg width="1680" height="800" xmlns="http://www.w3.org/2000/svg" xmlns:xlink="http://www.w3.org/1999/xlink" xml:space="preserve" overflow="hidden">
    <g transform="translate(-580 -1246)">
        <path d="M2082.41 1601.94 2108.11 1617.52 2107.71 1659.42 2082.41 1675.28ZM2107.19 1524 2109 1524.18 2108.41 1586.6 2107.19 1586.42C2066.5 1586.42 2033.5 1619.43 2033.5 1660.16 2033.5 1670.34 2035.57 1680.04 2039.3 1688.86L2045.67 1698.32 1991.93 1732 1989.16 1726.89 1979.39 1705.69 1974.99 1691.55 1972.79 1677.95 1971 1660.16C1971 1650.76 1971.95 1641.58 1973.77 1632.72L1980.03 1612.53 1983.54 1603.77 1993.54 1585.36 1998.2 1579.25 2010.89 1563.88 2025.23 1552.05 2032.69 1546.36 2049.32 1537.34 2060.72 1532.67 2078.69 1527.09 2088.02 1525.93Z" fill="#7FB800" fill-rule="evenodd"/>
        <path d="M2044.69 1697.71 2054.04 1711.64C2067.37 1725.03 2085.79 1733.32 2106.14 1733.32 2129.02 1733.32 2149.47 1722.83 2162.99 1706.38L2164.17 1704.42 2234 1704.42 2225.81 1722.09 2214.54 1740.74 2203.72 1753.08 2187.13 1768.22 2163.9 1783.02 2147.1 1789.67 2146.53 1789.88 2126.96 1794.41 2126.86 1794.43 2106.14 1796 2081.07 1793.46 2074.58 1791.94 2058.52 1786.94 2050.31 1783.72 2046.06 1781.4 2018.12 1762.81 2015.5 1760.64 1991 1731.32ZM2106.52 1659 2177.98 1680.73 2176.3 1680.73 2176.3 1680.73 2150.88 1680.73 2081.35 1723.06 2081.35 1674.76Z" fill="#FFB400" fill-rule="evenodd"/>
        <path d="M2107.86 1523 2122.33 1524.46 2135.38 1526.13 2150.75 1530.91 2162.78 1535.47 2176.67 1543.04 2187.48 1550.37 2199.4 1560.24 2209.29 1571.04 2218.28 1581.99 2229.49 1602.17 2231.69 1606.23 2234.95 1616.76 2239.83 1633.98 2241.31 1648.78 2242 1663.15 2240.45 1678.62 2240.04 1680.79 2214.65 1680.79 2214.65 1680.79 2149.97 1680.79 2082 1723 2082 1600.68 2127.4 1628.87 2146.42 1640.44 2177.21 1640.44 2174.16 1630.59C2165.78 1610.69 2148.97 1595.24 2128.23 1588.76L2107.36 1585.59Z" fill="#F14023" fill-rule="evenodd"/>
        <path d="M592 1277 1677.96 1277 1904 1657.5 1677.96 2038 592 2038Z" fill="#F14023" fill-rule="evenodd"/>
        <path d="M1418.46 1279 1677.96 1279 1904 1658.5 1677.96 2038 949 2038Z" fill="#B52801" fill-rule="evenodd"/>
        <path d="M622 1253 1707.96 1253 1934 1633.5 1707.96 2014 622 2014Z" fill="#6D9E00" fill-rule="evenodd"/>
        <path d="M1448.46 1255 1707.96 1255 1934 1634.5 1707.96 2014 979 2014Z" fill="#537A00" fill-rule="evenodd"/>
        <text fill="#FFFFFF" font-family="Expo M,Expo M_MSFontService,sans-serif" font-weight="700" font-size="440" transform="matrix(1 0 0 1 651.988 1785)">Tag</text>
        <text font-family="Expo M,Expo M_MSFontService,sans-serif" font-weight="700" font-size="440" transform="matrix(1 0 0 1 1549.18 1785)">M</text>
    </g>
</svg>